<svg height="16" shape-rendering="crispEdges" width="128" xmlns="http://www.w3.org/2000/svg"><g stroke-width="2"><path d="m7 3h2v2h-2z" fill="#0f0"/><g fill="#fff"><path d="m23 3h2v2h-2z" opacity=".772549"/><path d="m39 3h2v2h-2z" opacity=".556863"/><path d="m55 3h2v2h-2z" opacity=".34902"/><path d="m71 3h2v2h-2z" opacity=".34902"/><path d="m87 3h2v2h-2z" opacity=".34902"/><path d="m103 3h2v2h-2z" opacity=".34902"/><path d="m119 3h2v2h-2z" opacity=".34902"/><path d="m4 4h2v2h-2z" opacity=".772549"/><path d="m10 4h2v2h-2z" opacity=".34902"/><path d="m20 4h2v2h-2z" opacity=".556863"/></g><path d="m26 4h2v2h-2z" fill="#0f0"/><path d="m36 4h2v2h-2z" fill="#fff" opacity=".34902"/><path d="m42 4h2v2h-2z" fill="#fff" opacity=".772549"/><path d="m52 4h2v2h-2z" fill="#fff" opacity=".34902"/><path d="m58 4h2v2h-2z" fill="#fff" opacity=".556863"/><path d="m68 4h2v2h-2z" fill="#fff" opacity=".34902"/><path d="m74 4h2v2h-2z" fill="#fff" opacity=".34902"/><path d="m84 4h2v2h-2z" fill="#fff" opacity=".34902"/><path d="m90 4h2v2h-2z" fill="#fff" opacity=".34902"/><path d="m100 4h2v2h-2z" fill="#fff" opacity=".34902"/><path d="m106 4h2v2h-2z" fill="#fff" opacity=".34902"/><path d="m116 4h2v2h-2z" fill="#0f0"/><path d="m122 4h2v2h-2z" fill="#fff" opacity=".34902"/><path d="m3 7h2v2h-2z" fill="#fff" opacity=".556863"/><path d="m11 7h2v2h-2z" fill="#fff" opacity=".34902"/><path d="m19 7h2v2h-2z" fill="#fff" opacity=".34902"/><path d="m27 7h2v2h-2z" fill="#fff" opacity=".34902"/><path d="m35 7h2v2h-2z" fill="#fff" opacity=".34902"/><path d="m43 7h2v2h-2z" fill="#0f0"/><path d="m51 7h2v2h-2z" fill="#fff" opacity=".34902"/><path d="m59 7h2v2h-2z" fill="#fff" opacity=".772549"/><path d="m67 7h2v2h-2z" fill="#fff" opacity=".34902"/><path d="m75 7h2v2h-2z" fill="#fff" opacity=".556863"/><path d="m83 7h2v2h-2z" fill="#fff" opacity=".34902"/><path d="m91 7h2v2h-2z" fill="#fff" opacity=".34902"/><path d="m99 7h2v2h-2z" fill="#0f0"/><path d="m107 7h2v2h-2z" fill="#fff" opacity=".34902"/><path d="m115 7h2v2h-2z" fill="#fff" opacity=".772549"/><path d="m123 7h2v2h-2z" fill="#fff" opacity=".34902"/><path d="m4 10h2v2h-2z" fill="#fff" opacity=".34902"/><path d="m10 10h2v2h-2z" fill="#fff" opacity=".34902"/><path d="m20 10h2v2h-2z" fill="#fff" opacity=".34902"/><path d="m26 10h2v2h-2z" fill="#fff" opacity=".34902"/><path d="m36 10h2v2h-2z" fill="#fff" opacity=".34902"/><path d="m42 10h2v2h-2z" fill="#fff" opacity=".34902"/><path d="m52 10h2v2h-2z" fill="#fff" opacity=".34902"/><path d="m58 10h2v2h-2z" fill="#0f0"/><path d="m68 10h2v2h-2z" fill="#fff" opacity=".34902"/><path d="m74 10h2v2h-2z" fill="#fff" opacity=".772549"/><path d="m84 10h2v2h-2z" fill="#0f0"/><path d="m90 10h2v2h-2z" fill="#fff" opacity=".556863"/><path d="m100 10h2v2h-2z" fill="#fff" opacity=".772549"/><path d="m106 10h2v2h-2z" fill="#fff" opacity=".34902"/><path d="m116 10h2v2h-2z" fill="#fff" opacity=".556863"/><path d="m122 10h2v2h-2z" fill="#fff" opacity=".34902"/><path d="m7 11h2v2h-2z" fill="#fff" opacity=".34902"/><path d="m23 11h2v2h-2z" fill="#fff" opacity=".34902"/><path d="m39 11h2v2h-2z" fill="#fff" opacity=".34902"/><path d="m55 11h2v2h-2z" fill="#fff" opacity=".34902"/><path d="m71 11h2v2h-2z" fill="#0f0"/><path d="m87 11h2v2h-2z" fill="#fff" opacity=".772549"/><path d="m103 11h2v2h-2z" fill="#fff" opacity=".556863"/><path d="m119 11h2v2h-2z" fill="#fff" opacity=".34902"/></g></svg>