<svg fill="#fff" height="20" shape-rendering="crispEdges" viewBox="0 0 80 10" width="160" xmlns="http://www.w3.org/2000/svg"><g stroke-width="2"><path d="m4 0h2v2h-2z" fill="#0f0"/><path d="m14 0h2v2h-2z" opacity=".772549"/><path d="m24 0h2v2h-2z" opacity=".556863"/><path d="m34 0h2v2h-2z" opacity=".34902"/><path d="m44 0h2v2h-2z" opacity=".34902"/><path d="m54 0h2v2h-2z" opacity=".34902"/><path d="m64 0h2v2h-2z" opacity=".34902"/><path d="m74 0h2v2h-2z" opacity=".34902"/><path d="m1 1h2v2h-2z" opacity=".772549"/><path d="m7 1h2v2h-2z" opacity=".34902"/><path d="m11 1h2v2h-2z" opacity=".556863"/><path d="m17 1h2v2h-2z" fill="#0f0"/><path d="m21 1h2v2h-2z" opacity=".34902"/><path d="m27 1h2v2h-2z" opacity=".772549"/><path d="m31 1h2v2h-2z" opacity=".34902"/><path d="m37 1h2v2h-2z" opacity=".556863"/><path d="m41 1h2v2h-2z" opacity=".34902"/><path d="m47 1h2v2h-2z" opacity=".34902"/><path d="m51 1h2v2h-2z" opacity=".34902"/><path d="m57 1h2v2h-2z" opacity=".34902"/><path d="m61 1h2v2h-2z" opacity=".34902"/><path d="m67 1h2v2h-2z" opacity=".34902"/><path d="m71 1h2v2h-2z" fill="#0f0"/><path d="m77 1h2v2h-2z" opacity=".34902"/><path d="m0 4h2v2h-2z" opacity=".556863"/><path d="m8 4h2v2h-2z" opacity=".34902"/><path d="m10 4h2v2h-2z" opacity=".34902"/><path d="m18 4h2v2h-2z" opacity=".34902"/><path d="m20 4h2v2h-2z" opacity=".34902"/><path d="m28 4h2v2h-2z" fill="#0f0"/><path d="m30 4h2v2h-2z" opacity=".34902"/><path d="m38 4h2v2h-2z" opacity=".772549"/><path d="m40 4h2v2h-2z" opacity=".34902"/><path d="m48 4h2v2h-2z" opacity=".556863"/><path d="m50 4h2v2h-2z" opacity=".34902"/><path d="m58 4h2v2h-2z" opacity=".34902"/><path d="m60 4h2v2h-2z" fill="#0f0"/><path d="m68 4h2v2h-2z" opacity=".34902"/><path d="m70 4h2v2h-2z" opacity=".772549"/><path d="m78 4h2v2h-2z" opacity=".34902"/><path d="m1 7h2v2h-2z" opacity=".34902"/><path d="m7 7h2v2h-2z" opacity=".34902"/><path d="m11 7h2v2h-2z" opacity=".34902"/><path d="m17 7h2v2h-2z" opacity=".34902"/><path d="m21 7h2v2h-2z" opacity=".34902"/><path d="m27 7h2v2h-2z" opacity=".34902"/><path d="m31 7h2v2h-2z" opacity=".34902"/><path d="m37 7h2v2h-2z" fill="#0f0"/><path d="m41 7h2v2h-2z" opacity=".34902"/><path d="m47 7h2v2h-2z" opacity=".772549"/><path d="m51 7h2v2h-2z" fill="#0f0"/><path d="m57 7h2v2h-2z" opacity=".556863"/><path d="m61 7h2v2h-2z" opacity=".772549"/><path d="m67 7h2v2h-2z" opacity=".34902"/><path d="m71 7h2v2h-2z" opacity=".556863"/><path d="m77 7h2v2h-2z" opacity=".34902"/><path d="m4 8h2v2h-2z" opacity=".34902"/><path d="m14 8h2v2h-2z" opacity=".34902"/><path d="m24 8h2v2h-2z" opacity=".34902"/><path d="m34 8h2v2h-2z" opacity=".34902"/><path d="m44 8h2v2h-2z" fill="#0f0"/><path d="m54 8h2v2h-2z" opacity=".772549"/><path d="m64 8h2v2h-2z" opacity=".556863"/><path d="m74 8h2v2h-2z" opacity=".34902"/></g></svg>