<?xml version="1.0" encoding="UTF-8" standalone="no"?>
<svg
   height="12"
   width="12"
   viewBox="0 0 12 12"
   version="1.1"
   id="svg1945"
   sodipodi:docname="grapper_highlight.svg"
   inkscape:version="1.2.2 (732a01da63, 2022-12-09)"
   xmlns:inkscape="http://www.inkscape.org/namespaces/inkscape"
   xmlns:sodipodi="http://sodipodi.sourceforge.net/DTD/sodipodi-0.dtd"
   xmlns="http://www.w3.org/2000/svg"
   xmlns:svg="http://www.w3.org/2000/svg">
  <defs
     id="defs1949" />
  <sodipodi:namedview
     id="namedview1947"
     pagecolor="#ffffff"
     bordercolor="#111111"
     borderopacity="1"
     inkscape:showpageshadow="0"
     inkscape:pageopacity="0"
     inkscape:pagecheckerboard="1"
     inkscape:deskcolor="#d1d1d1"
     showgrid="true"
     showguides="false"
     inkscape:zoom="32"
     inkscape:cx="4.046875"
     inkscape:cy="9.859375"
     inkscape:current-layer="g4105">
    <inkscape:grid
       type="xygrid"
       id="grid3157"
       originx="0"
       originy="0" />
  </sodipodi:namedview>
  <g
     id="g4105">
    <path
       id="path1943"
       style="fill:#ffffff;fill-opacity:1;stroke-width:0.714286"
       d="M 6,1 C 3.14286,1 1,3.14286 1,6 1,8.85714 3.14286,11 6,11 8.85714,11 11,8.85714 11,6 11,3.14286 8.85714,1 6,1 Z M 6,2.4285714 C 8.142855,2.4285714 9.5714286,3.857145 9.5714286,6 9.5714286,8.142855 8.142855,9.5714286 6,9.5714286 3.857145,9.5714286 2.4285714,8.142855 2.4285714,6 2.4285714,3.857145 3.857145,2.4285714 6,2.4285714 Z M 6,3.8571429 C 4.7755114,3.8571429 3.8571429,4.7755114 3.8571429,6 3.8571429,7.2244886 4.7755114,8.1428571 6,8.1428571 7.2244886,8.1428571 8.1428571,7.2244886 8.1428571,6 8.1428571,4.7755114 7.2244886,3.8571429 6,3.8571429 Z" />
  </g>
</svg>
