<?xml version="1.0" encoding="UTF-8" standalone="no"?>
<svg
   height="24"
   width="24"
   viewBox="0 0 24 24"
   version="1.1"
   id="svg1945"
   sodipodi:docname="visible.svg"
   inkscape:version="1.2.2 (732a01da63, 2022-12-09)"
   xmlns:inkscape="http://www.inkscape.org/namespaces/inkscape"
   xmlns:sodipodi="http://sodipodi.sourceforge.net/DTD/sodipodi-0.dtd"
   xmlns="http://www.w3.org/2000/svg"
   xmlns:svg="http://www.w3.org/2000/svg">
  <defs
     id="defs1949" />
  <sodipodi:namedview
     id="namedview1947"
     pagecolor="#ffffff"
     bordercolor="#111111"
     borderopacity="1"
     inkscape:showpageshadow="0"
     inkscape:pageopacity="0"
     inkscape:pagecheckerboard="1"
     inkscape:deskcolor="#d1d1d1"
     showgrid="true"
     showguides="false"
     inkscape:zoom="32"
     inkscape:cx="8.953125"
     inkscape:cy="14.046875"
     inkscape:current-layer="g4105">
    <inkscape:grid
       type="xygrid"
       id="grid3157"
       originx="0"
       originy="0" />
  </sodipodi:namedview>
  <g
     id="g4105">
    <path
       id="path1943"
       style="fill:#a95cfa;fill-opacity:1;stroke-width:1.28571"
       d="m 12,3 c -5.142852,0 -9,3.857148 -9,9 0,5.142852 3.857148,9 9,9 5.142852,0 9,-3.857148 9,-9 0,-5.142852 -3.857148,-9 -9,-9 z m 0,3 c 3.857139,0 6,2.142861 6,6 0,3.857139 -2.142861,6 -6,6 C 8.142861,18 6,15.857139 6,12 6,8.142861 8.142861,6 12,6 Z m 0,3 c -2.2040794,0 -3,0.7959206 -3,3 0,2.204079 0.7959206,3 3,3 2.204079,0 3,-0.795921 3,-3 0,-2.2040794 -0.795921,-3 -3,-3 z"
       sodipodi:nodetypes="sssssssssssssss" />
  </g>
</svg>
