<?xml version="1.0" encoding="UTF-8" standalone="no"?>
<svg
   height="16"
   width="16"
   viewBox="0 0 16 16"
   version="1.1"
   id="svg1945"
   sodipodi:docname="visible.svg"
   inkscape:version="1.2.2 (732a01da63, 2022-12-09)"
   xmlns:inkscape="http://www.inkscape.org/namespaces/inkscape"
   xmlns:sodipodi="http://sodipodi.sourceforge.net/DTD/sodipodi-0.dtd"
   xmlns="http://www.w3.org/2000/svg"
   xmlns:svg="http://www.w3.org/2000/svg">
  <defs
     id="defs1949" />
  <sodipodi:namedview
     id="namedview1947"
     pagecolor="#ffffff"
     bordercolor="#111111"
     borderopacity="1"
     inkscape:showpageshadow="0"
     inkscape:pageopacity="0"
     inkscape:pagecheckerboard="1"
     inkscape:deskcolor="#d1d1d1"
     showgrid="true"
     showguides="false"
     inkscape:zoom="32"
     inkscape:cx="6.125"
     inkscape:cy="9.921875"
     inkscape:current-layer="g4105">
    <inkscape:grid
       type="xygrid"
       id="grid3157" />
  </sodipodi:namedview>
  <g
     id="g4105">
    <path
       id="path1943"
       style="fill:#a95cfa;fill-opacity:1"
       d="M 8 1 C 4.000004 1 1 4.000004 1 8 C 1 11.999996 4.000004 15 8 15 C 11.999996 15 15 11.999996 15 8 C 15 4.000004 11.999996 1 8 1 z M 8 3 C 10.999997 3 13 5.000003 13 8 C 13 10.999997 10.999997 13 8 13 C 5.000003 13 3 10.999997 3 8 C 3 5.000003 5.000003 3 8 3 z M 8 5 C 6.285716 5 5 6.285716 5 8 C 5 9.714284 6.285716 11 8 11 C 9.714284 11 11 9.714284 11 8 C 11 6.285716 9.714284 5 8 5 z " />
  </g>
</svg>
