<svg art="no-convert" fill="#fff" height="16" width="16" xmlns="http://www.w3.org/2000/svg"><path d="m4 1c-1.6619967 0-3 1.3380033-3 3v8c0 1.661996 1.3380033 3 3 3h8c1.661996 0 3-1.338004 3-3v-8c0-1.6619967-1.338004-3-3-3zm.8027344 2.1972656 3.1972656 3.1972656 3.197266-3.1972656c1.022291-1.0221171 2.68066.5328879 1.605468 1.6054688l-3.1972652 3.1972656 3.1972652 3.197266c1.051204 1.048652-.556817 2.656672-1.605468 1.605468l-3.197266-3.1972652-3.1972656 3.1972652c-1.0486517 1.051205-2.6566725-.556816-1.6054688-1.605468l3.1972656-3.197266-3.1972656-3.1972656c-1.087489-1.0848479.5946265-2.616139 1.6054688-1.6054688z"/></svg>