<svg height="12" shape-rendering="crispEdges" width="12" xmlns="http://www.w3.org/2000/svg"><g fill="#fff"><path d="m6 1h1v1h-1z"/><path d="m7 1h1v1h-1z"/><path d="m8 1h1v1h-1z"/><path d="m9 1h1v1h-1z"/><path d="m6 2h1v1h-1z"/><path d="m7 2h1v1h-1z"/><path d="m8 2h1v1h-1z"/><path d="m9 2h1v1h-1z"/><path d="m10 2h1v1h-1z"/><path d="m9 3h1v1h-1z"/><path d="m10 3h1v1h-1z"/><path d="m9 4h1v1h-1z"/><path d="m10 4h1v1h-1z"/><path d="m9 5h1v1h-1z"/><path d="m10 5h1v1h-1z"/><path d="m1 6h1v1h-1z"/><path d="m2 6h1v1h-1z"/><path d="m1 7h1v1h-1z"/><path d="m2 7h1v1h-1z"/><path d="m1 8h1v1h-1z"/><path d="m2 8h1v1h-1z"/><path d="m1 9h1v1h-1z"/><path d="m2 9h1v1h-1z"/><path d="m3 9h1v1h-1z"/><path d="m4 9h1v1h-1z"/><path d="m5 9h1v1h-1z"/><path d="m2 10h1v1h-1z"/><path d="m3 10h1v1h-1z"/><path d="m4 10h1v1h-1z"/><path d="m5 10h1v1h-1z"/></g></svg>