<svg fill="#fff" height="16" width="16" xmlns="http://www.w3.org/2000/svg"><path d="m2.1200257 9.607277s.3264793.221612.9300113.495843l-.5550465 1.196438c-.6945795 1.498692 1.5986418 2.560065 2.291726 1.060756l.6857912-1.482592c.3926563.08046.8140606.147639 1.2655063.192416v1.566466c-.0005205 1.651654 2.5265994 1.651651 2.526079 0v-1.566466c.4514457-.04477.87285-.111951 1.265507-.192416l.685791 1.482592c.693084 1.499309 2.986305.437936 2.291725-1.060756l-.555046-1.196438c.603532-.274231.930011-.495843.930011-.495843 1.530122-1.08277-.129385-3.42386-1.657739-2.338596 0 0-1.321007.999083-4.2232885.999083-2.9022817 0-4.2232885-.999083-4.2232885-.999083-1.4825558-1.052745-3.22889354 1.22679-1.6577393 2.338596z"/></svg>