<svg fill="#fff" height="16" width="16" xmlns="http://www.w3.org/2000/svg"><path d="m8 11a1 1 0 0 1 -1 1 1 1 0 0 1 -1-1 1 1 0 0 1 1-1 1 1 0 0 1 1 1z"/><path d="m6 8a1 1 0 0 1 -1 1 1 1 0 0 1 -1-1 1 1 0 0 1 1-1 1 1 0 0 1 1 1z"/><path d="m8 5a1 1 0 0 1 -1 1 1 1 0 0 1 -1-1 1 1 0 0 1 1-1 1 1 0 0 1 1 1z"/><path d="m8 1.1992187c-3.7460569 0-6.8007813 3.0547244-6.8007813 6.8007813 0 7.512135 8.463038 8.866104 9.5315193 4.257856.138515-.597401.07473-1.312176.179687-1.816407.271674-1.3051728 2.521564-.148913 3.100414-2.8020065.381939-1.7505744-.767471-6.4402236-6.010839-6.4402238zm0 1.6015626c3.623309 0 4.680865 3.2637074 4.440526 4.5300245-.269712 1.4210804-2.202669-.0955721-3.0574457 2.634038-.220746.7049212-.0212105 1.3509682-.2070313 1.9101562-.90983 2.73794-6.3752677 1.4084-6.3752677-3.875 0-2.8813535 2.3178652-5.1992187 5.1992187-5.1992187z"/><path d="m11 6a1 1 0 0 1 -1 1 1 1 0 0 1 -1-1 1 1 0 0 1 1-1 1 1 0 0 1 1 1z"/></svg>