<svg atr="no-convert" fill="#fff" height="16" width="16" xmlns="http://www.w3.org/2000/svg"><path d="m8.0036644.59101167c-3.3893076-.00000011-6.1410621 2.75175583-6.1410618 6.14106173 0 2.8556146 1.9588451 5.2356076 4.602132 5.9212146l-.9526705.556946c-1.3778588.791352-.093134 2.774916 1.1798467 2.037249l4.3016742-2.476943c.09045-.05155.120313-.167702.06595-.256487l-2.4696118-4.2723628c-.884395-1.2902738-2.8114424-.1484291-2.051906 1.1505329.2498209.4413353.5070781.8903799.7621365 1.3337389-1.9111645-.334844-3.3709885-1.9853376-3.3709885-3.9938886 0-2.2499089 1.8242053-4.0671711 4.0744992-4.067171 2.2502916 0 4.0671716 1.816879 4.0671706 4.067171 0 1.3962206 2.066562 1.301928 2.066562-.04397 0-3.3852867-2.759797-6.09709208-6.1337326-6.09709173z"/></svg>