<svg atr="no-convert" fill="#fff" height="16" width="16" xmlns="http://www.w3.org/2000/svg"><path d="m5.9355469.6640625c-.4189935.3505922.0251388 1.1663496-.2890625 1.6132813-.3098153.440693-.8642944.7537568-1.4003906.8066406-.5382324.0530945-1.0314357-.7113835-1.5371094-.5195313-1.289624.4892824-2.28377713 2.2316332-2.05468752 3.5917969.08897521.5282686.98923922.5689581 1.21093752 1.0566406.2117701.4658428.2094219 1.0682531 0 1.5351563-.2247625.5011049-1.14182207.5537012-1.23046878 1.0957031-.22498186 1.375579.76968678 3.139909 2.07421878 3.630859.532991.200587 1.0485594-.613155 1.6152344-.55664.5017585.05004 1.0150745.352842 1.3046874.765625.3217406.458575-.1240949 1.29419.3066407 1.652344 1.0632666.884101 3.0860059.885105 4.1484371 0 .434824-.362249-.01895-1.207008.306641-1.669922.28548-.405892.793214-.699933 1.287109-.748047.566191-.05516 1.081238.757993 1.613282.55664 1.300614-.492219 2.288843-2.260076 2.054687-3.630859-.090203-.5280602-.98645-.5702354-1.210937-1.0566406-.214448-.4646533-.225983-1.0677617-.017578-1.5351563.225444-.5056083 1.158044-.5494755 1.248046-1.0957031.224774-1.3641715-.77685-3.1139644-2.074218-3.5917969-.503744-.1855337-.982942.5874934-1.517578.5390625-.537064-.0486508-1.092785-.3650778-1.402344-.8066406-.317227-.4525009.136138-1.2774942-.28711-1.6328125-1.0590848-.88910598-3.0879147-.88739066-4.1484371 0zm2.0664062 4.6757813c1.4970924 0 2.6582029 1.1629961 2.6582029 2.6601562 0 1.4970899-1.1610427 2.660156-2.6582029 2.660156-1.4580065 0-2.6621094-1.1439852-2.6621093-2.660156-.0000001-1.5161596 1.2040885-2.6601563 2.6621093-2.6601562z"/></svg>