<svg fill="#0f0" height="16" width="16" xmlns="http://www.w3.org/2000/svg"><path d="m6.8272153 2.1327782v1.4471313c-.7907786.1430498-1.5280729.4333379-2.1763409.8511209l-1.0452759-1.0452758c-1.0477558-1.0482534-2.72139538.5480841-1.6345135 1.6345134l1.0385031 1.038503c-.6006595.9198665-.9521719 2.054044-.9481984 3.3570738.0045198 1.7154402 2.6306352 1.7063962 2.6233488-.0090291-.0084185-2.7610993 2.2409572-3.3070919 3.2983758-3.3074063 1.0790698-.0003209 3.3169467.5587526 3.3254667 3.3164368.0045 1.7154418 2.630632 1.7063968 2.62335-.00903-.00393-1.2948875-.357695-2.4227416-.957229-3.3390092l1.101716-1.1017162c1.069814-1.0693736-.567682-2.7018564-1.634514-1.634519l-1.106231 1.1062314c-.653814-.4229934-1.3989187-.7163977-2.1966598-.8601514v-1.4448736c.0004762-1.51037038-2.3122738-1.51037145-2.3117979 0zm1.1694448 4.9667534c-1.2767695 0-2.311798 1.0350285-2.311798 2.3117979 0 1.2767695 1.0350285 2.3117975 2.311798 2.3117975 1.2767694 0 2.3117979-1.035028 2.3117979-2.3117975 0-1.2767694-1.0350285-2.3117979-2.3117979-2.3117979z"/></svg>