<svg fill="#fff" height="16" width="16" xmlns="http://www.w3.org/2000/svg"><path d="m6 1c-1.661995 0-3 1.338005-3 3v8c0 1.661994 1.338005 3 3 3h4c1.661994 0 3-1.338006 3-3v-8c0-1.661995-1.338006-3-3-3zm2.5761719 1.1347656 3.0000001 2c1.131517.7532564-.02105 2.484053-1.152344 1.7304688l-2.423828-1.6152344-2.4238281 1.6152344c-1.1312986.7535856-2.28386-.9772135-1.1523438-1.7304688l3-2c.3476929-.2315487.8046321-.2315612 1.1523438 0zm3.0000001 9.7304684-3.0000001 2c-.3489636.232395-.8033802.232395-1.1523438 0l-3-2c-1.1324773-.753895.0227513-2.4828848 1.1523438-1.730468l2.4238281 1.615234 2.423828-1.615234c1.102458-.7343746 2.311762.958638 1.152344 1.730468z"/></svg>